<?xml version="1.0" encoding="UTF-8"?>
<svg xmlns="http://www.w3.org/2000/svg" xmlns:xlink="http://www.w3.org/1999/xlink" width="683px" height="683px" viewBox="0 0 683 683" version="1.1">
<g id="surface1">
<path style=" stroke:none;fill-rule:nonzero;fill:rgb(99.607843%,55.294118%,13.72549%);fill-opacity:1;" d="M 360.441406 87.109375 C 349.769531 90.976562 348.171875 93.511719 321.222656 147.40625 L 295.476562 198.628906 L 229.445312 199.03125 C 164.746094 199.429688 163.28125 199.429688 158.078125 202.367188 C 155.140625 203.832031 151.40625 206.632812 149.804688 208.367188 C 148.339844 209.96875 133.132812 239.183594 116.191406 273.199219 C 88.578125 328.558594 85.375 335.628906 85.375 341.5 C 85.375 347.371094 88.578125 354.441406 116.191406 409.800781 C 133.132812 443.816406 148.339844 473.03125 149.804688 474.632812 C 151.40625 476.367188 155.140625 479.167969 158.078125 480.632812 C 163.28125 483.570312 164.746094 483.570312 229.445312 483.96875 L 295.609375 484.371094 L 320.15625 533.859375 C 346.703125 587.351562 350.304688 592.824219 360.976562 596.023438 C 368.179688 598.160156 513.050781 598.292969 520.652344 596.15625 C 531.460938 593.222656 533.195312 590.554688 566.542969 523.722656 L 597.890625 460.890625 L 597.226562 453.554688 C 596.691406 447.285156 592.554688 438.082031 570.410156 393.792969 L 544.265625 341.5 L 570.546875 288.941406 C 592.554688 244.652344 596.824219 235.316406 597.359375 229.3125 C 597.890625 222.109375 597.625 221.574219 566.542969 159.277344 C 533.195312 92.445312 531.460938 89.777344 520.652344 86.84375 C 513.183594 84.707031 366.3125 85.109375 360.441406 87.109375 Z M 516.117188 185.023438 L 537.328125 227.445312 L 515.71875 270.53125 L 494.242188 313.484375 L 440.882812 313.21875 L 387.523438 312.820312 L 366.179688 270.53125 L 344.835938 228.109375 L 387.523438 142.734375 L 494.90625 142.734375 Z M 316.820312 298.8125 L 338.164062 341.5 L 295.476562 426.875 L 188.09375 426.875 L 145.40625 341.5 L 188.09375 256.125 L 295.476562 256.125 Z M 515.71875 412.601562 L 537.328125 455.554688 L 516.117188 497.976562 L 494.90625 540.265625 L 387.523438 540.265625 L 344.835938 454.890625 L 364.578125 415.136719 C 375.515625 393.390625 385.253906 374.183594 386.320312 372.449219 L 388.1875 369.515625 L 494.242188 369.515625 Z M 515.71875 412.601562 "/>
</g>
</svg>
